<mxfile host="Electron" agent="Mozilla/5.0 (Windows NT 10.0; Win64; x64) AppleWebKit/537.36 (KHTML, like Gecko) draw.io/25.0.1 Chrome/128.0.6613.186 Electron/32.2.6 Safari/537.36" version="25.0.1">
  <diagram name="第 1 页" id="ewl9boTtj5eG1xmZE2dz">
    <mxGraphModel dx="202" dy="129" grid="1" gridSize="3.937" guides="1" tooltips="1" connect="1" arrows="1" fold="1" page="1" pageScale="1" pageWidth="48" pageHeight="48" background="#EBEBEB" math="0" shadow="0">
      <root>
        <mxCell id="0" />
        <mxCell id="1" parent="0" />
        <mxCell id="h4AXBYLEM3Z7pXykpD9Z-1" value="" style="rounded=0;whiteSpace=wrap;html=1;fillColor=none;strokeColor=#404040;strokeWidth=2;" parent="1" vertex="1">
          <mxGeometry x="3.94" y="15.75" width="27.43" height="27.31" as="geometry" />
        </mxCell>
        <mxCell id="h4AXBYLEM3Z7pXykpD9Z-3" value="" style="rounded=0;whiteSpace=wrap;html=1;fillColor=none;strokeColor=#404040;strokeWidth=2;" parent="1" vertex="1">
          <mxGeometry x="15.75" y="4.01" width="27.56" height="27.49" as="geometry" />
        </mxCell>
        <mxCell id="2MutQKSJel_6PpwHSY6X-1" value="" style="rounded=0;whiteSpace=wrap;html=1;fillColor=#404040;strokeColor=#404040;" parent="1" vertex="1">
          <mxGeometry x="15.75" y="15.75" width="15.75" height="15.75" as="geometry" />
        </mxCell>
      </root>
    </mxGraphModel>
  </diagram>
</mxfile>
